<?xml version="1.0" encoding="utf-8"?>
<!-- Generator: Adobe Illustrator 24.1.2, SVG Export Plug-In . SVG Version: 6.00 Build 0)  -->
<svg version="1.1"
	 id="svg2" inkscape:version="0.91 r13725" sodipodi:docname="bp.svg" xmlns:cc="http://creativecommons.org/ns#" xmlns:dc="http://purl.org/dc/elements/1.1/" xmlns:inkscape="http://www.inkscape.org/namespaces/inkscape" xmlns:rdf="http://www.w3.org/1999/02/22-rdf-syntax-ns#" xmlns:sodipodi="http://sodipodi.sourceforge.net/DTD/sodipodi-0.dtd" xmlns:svg="http://www.w3.org/2000/svg"
	 xmlns="http://www.w3.org/2000/svg" xmlns:xlink="http://www.w3.org/1999/xlink" x="0px" y="0px" viewBox="0 0 64 64"
	 style="enable-background:new 0 0 64 64;" xml:space="preserve">
<style type="text/css">
	.st0{fill:#222222;}
	.st1{fill-rule:evenodd;clip-rule:evenodd;fill:#CCCCCC;}
</style>
<sodipodi:namedview  bordercolor="#666666" borderopacity="1" gridtolerance="10" guidetolerance="10" id="namedview4" inkscape:current-layer="svg2" inkscape:cx="-9.5956704" inkscape:cy="-0.38803191" inkscape:guide-bbox="true" inkscape:pageopacity="0" inkscape:pageshadow="2" inkscape:window-height="1056" inkscape:window-maximized="1" inkscape:window-width="1855" inkscape:window-x="65" inkscape:window-y="24" inkscape:zoom="5.6875003" objecttolerance="10" pagecolor="#9e9e9e" showgrid="true" showguides="true">
	<inkscape:grid  id="grid5739" type="xygrid"></inkscape:grid>
</sodipodi:namedview>
<path id="path8527" inkscape:connector-curvature="0" sodipodi:nodetypes="cccccccccc" class="st0" d="M32,3.5
	c-7.9,0-14.3,6.4-14.3,14.3c0,3.1,1,6,2.8,8.5L11,38.6v17.6c13.6,5.9,29.8,5.4,42,0V38.6l-9.5-12.3c1.8-2.5,2.8-5.4,2.8-8.5
	C46.3,9.9,39.9,3.5,32,3.5z"/>
<path class="st1" d="M32,55.3c-5.2,0-10.3-0.7-15.7-2.2v-4.4c5.4,1.4,10.5,2.1,15.7,2.1c5.2,0,10.3-0.7,15.7-2.1v4.4
	C42.3,54.6,37.2,55.3,32,55.3z M32.7,44.9c-5.1,0-9.4-0.7-13.5-1.5l-0.2,0c-0.8-0.1-1.7-0.3-2.5-0.4l0-2.3l11.1-14.5l-0.9-0.6
	c-2.7-1.8-4.2-4.8-4.2-8c0-5.3,4.3-9.6,9.6-9.6c5.3,0,9.6,4.3,9.6,9.6c0,3.2-1.6,6.2-4.3,8l-0.9,0.6l11.1,14.4V43
	C42.2,44.3,37.3,44.9,32.7,44.9z"/>
</svg>
