<?xml version="1.0" encoding="UTF-8" standalone="no"?>
<!-- Created with Inkscape (http://www.inkscape.org/) -->

<svg
   xmlns:dc="http://purl.org/dc/elements/1.1/"
   xmlns:cc="http://creativecommons.org/ns#"
   xmlns:rdf="http://www.w3.org/1999/02/22-rdf-syntax-ns#"
   xmlns:svg="http://www.w3.org/2000/svg"
   xmlns="http://www.w3.org/2000/svg"
   xmlns:sodipodi="http://sodipodi.sourceforge.net/DTD/sodipodi-0.dtd"
   xmlns:inkscape="http://www.inkscape.org/namespaces/inkscape"
   id="svg2"
   version="1.1"
   inkscape:version="0.91 r13725"
   width="64"
   height="64"
   viewBox="0 0 64 64"
   sodipodi:docname="bn.svg">
  <metadata
     id="metadata8">
    <rdf:RDF>
      <cc:Work
         rdf:about="">
        <dc:format>image/svg+xml</dc:format>
        <dc:type
           rdf:resource="http://purl.org/dc/dcmitype/StillImage" />
        <dc:title />
      </cc:Work>
    </rdf:RDF>
  </metadata>
  <defs
     id="defs6" />
  <sodipodi:namedview
     pagecolor="#ffffff"
     bordercolor="#666666"
     borderopacity="1"
     objecttolerance="10"
     gridtolerance="10"
     guidetolerance="10"
     inkscape:pageopacity="0"
     inkscape:pageshadow="2"
     inkscape:window-width="1855"
     inkscape:window-height="1056"
     id="namedview4"
     showgrid="false"
     inkscape:zoom="1.4218751"
     inkscape:cx="169.35344"
     inkscape:cy="108.01962"
     inkscape:window-x="65"
     inkscape:window-y="24"
     inkscape:window-maximized="1"
     inkscape:current-layer="svg2"
     showguides="true"
     inkscape:guide-bbox="true">
    <inkscape:grid
       type="xygrid"
       id="grid5739" />
  </sodipodi:namedview>
  <g
     id="use8404"
     transform="translate(-167.80101,-87.973009)">
    <path
       sodipodi:nodetypes="cccccccccccc"
       inkscape:connector-curvature="0"
       id="path8612"
       d="m 174.49218,120.83365 6.24517,8.84219 7.95588,-0.71891 -1.56747,2.26747 0.0964,15.55148 c 9.27426,3.34806 20.84428,4.62994 37.80428,1.06083 0.0534,-15.78638 1.45171,-31.00493 -9.64394,-51.498693 l -5.49706,-0.09644 -5.40061,-6.268568 -10.70478,2.12167 -0.28932,7.040082 c -12.19974,10.082589 -15.58067,15.881759 -18.99859,21.698889 z"
       style="fill:#ffffff;fill-opacity:1;fill-rule:evenodd;stroke:none;stroke-width:1px;stroke-linecap:butt;stroke-linejoin:miter;stroke-opacity:1" />
    <g
       style="fill:#000000;fill-opacity:1"
       id="g8614"
       transform="matrix(0.76376193,0,0,0.76376193,723.80514,172.89675)">
      <path
         sodipodi:nodetypes="ccccc"
         inkscape:connector-curvature="0"
         id="path8616"
         d="m -699,-45.637795 0,8 c 14,4 27,4 41,0 l 0,-8 c -14,4 -27,4 -41,0 z"
         style="fill:#000000;fill-opacity:1;fill-rule:evenodd;stroke:none;stroke-width:0;stroke-linecap:butt;stroke-linejoin:miter;stroke-miterlimit:4;stroke-dasharray:none;stroke-opacity:1" />
      <path
         sodipodi:nodetypes="ccccccccccccccccccc"
         inkscape:connector-curvature="0"
         style="fill:#000000;fill-opacity:1;fill-rule:evenodd;stroke:none;stroke-width:0;stroke-linecap:butt;stroke-linejoin:miter;stroke-miterlimit:4;stroke-dasharray:none;stroke-opacity:1"
         d="m -681.85352,-103.94922 -5.55468,1.26367 -1.26368,8.08008 c -14.6552,8.8795 -18.70539,17.31871 -25.88476,25.88672 L -709,-60.51172 c 11.47828,-2.21594 27.65234,0.091 27.65234,-19.0664 l 2.52539,-0.001 c 0.0976,14.28955 -6.88524,16.658 -15.53125,19.44668 l -5.17773,7.32422 0.12764,2.90234 c 14.04747,3.31544 28.08322,3.75007 41.79423,0 -0.46421,-17.93815 -4.50348,-33.24118 -11.36328,-46.4668 l -7.32422,0 z m -10.25781,20.04688 c 1.63791,-3.7e-4 2.96609,1.32693 2.9668,2.96484 3.7e-4,1.63867 -1.32813,2.96717 -2.9668,2.9668 -1.63867,3.7e-4 -2.96716,-1.32813 -2.96679,-2.9668 7.1e-4,-1.6379 1.32889,-2.96521 2.96679,-2.96484 z"
         id="path8618" />
    </g>
  </g>
</svg>
